<?xml version="1.0" standalone="no"?>
<!DOCTYPE svg PUBLIC "-//W3C//DTD SVG 20010904//EN"
 "http://www.w3.org/TR/2001/REC-SVG-20010904/DTD/svg10.dtd">
<svg version="1.0" xmlns="http://www.w3.org/2000/svg"
 width="96.000000pt" height="96.000000pt" viewBox="0 0 96.000000 96.000000"
 preserveAspectRatio="xMidYMid meet">

<g transform="translate(0.000000,96.000000) scale(0.100000,-0.100000)"
fill="#000000" stroke="none">
<path d="M414 881 c-51 -23 -101 -83 -109 -132 -4 -24 0 -57 11 -92 17 -54 18
-55 53 -53 29 1 36 5 36 21 0 15 -10 22 -37 29 -21 5 -38 13 -38 17 0 27 23
58 53 72 29 14 43 15 90 6 64 -13 92 -37 82 -68 -5 -16 -15 -21 -41 -21 -33 0
-74 -28 -74 -50 0 -14 33 1 48 22 7 10 18 16 23 12 6 -4 6 -11 -2 -20 -9 -11
-9 -17 1 -29 17 -21 29 -19 39 8 8 20 10 21 16 4 10 -24 -13 -123 -36 -163
-30 -50 -86 -67 -127 -38 -21 14 -23 14 -32 -12 -9 -22 -6 -34 14 -68 14 -22
36 -53 51 -69 14 -15 23 -31 20 -36 -3 -5 10 -8 28 -6 18 1 44 -3 58 -11 13
-7 19 -13 12 -14 -7 0 3 -30 24 -72 19 -40 39 -84 44 -97 5 -13 12 -21 15 -18
3 3 -5 38 -18 79 -12 40 -22 79 -21 86 0 6 -3 12 -8 12 -5 0 -9 7 -9 15 0 8 4
15 8 15 9 0 62 -132 62 -153 0 -21 12 -28 27 -16 10 9 13 8 13 -5 0 -9 -7 -16
-15 -16 -8 0 -15 -4 -15 -10 0 -5 11 -10 25 -10 17 0 25 5 25 18 0 34 -12 61
-25 56 -8 -3 -15 7 -19 27 -8 39 0 52 10 15 3 -14 10 -26 15 -26 5 0 6 8 3 18
-3 9 4 2 16 -16 12 -17 26 -32 31 -32 5 0 15 -14 24 -30 15 -29 18 -30 80 -30
l65 0 0 43 c-1 89 -66 178 -187 252 -82 50 -97 70 -110 153 -5 28 0 38 31 69
22 23 36 46 36 62 1 14 7 37 15 51 38 66 3 171 -74 224 -68 47 -141 57 -207
27z m66 -521 c0 -5 -6 -10 -14 -10 -8 0 -18 5 -21 10 -3 6 3 10 14 10 12 0 21
-4 21 -10z m-15 -60 c3 -5 20 -10 37 -10 26 0 29 -2 18 -15 -7 -8 -15 -15 -19
-15 -12 1 -66 50 -54 50 6 0 15 -4 18 -10z m175 0 c0 -5 -15 -10 -32 -9 -31 1
-32 1 -8 9 35 11 40 11 40 0z m79 -52 c11 -10 13 -10 7 0 -13 23 10 12 39 -18
16 -16 26 -33 22 -36 -4 -4 -15 4 -26 17 -23 27 -27 19 -9 -14 10 -20 10 -21
-6 -8 -24 20 -59 71 -49 71 5 0 15 -6 22 -12z m-44 -20 c-3 6 -2 12 3 12 19 0
59 -66 65 -105 l6 -40 -25 48 c-23 45 -40 64 -28 32 12 -31 -6 -13 -26 25 -24
47 -26 61 -4 34 8 -10 13 -13 9 -6z m-26 -39 c3 -11 1 -12 -11 -2 -8 7 -19 9
-23 5 -5 -4 -5 -1 -1 6 9 16 28 11 35 -9z"/>
<path d="M433 523 c-7 -2 -13 -11 -13 -19 0 -11 8 -14 28 -12 16 2 27 9 27 18
0 15 -21 22 -42 13z"/>
<path d="M407 468 c2 -5 14 -8 26 -9 21 0 21 -1 2 -9 -18 -8 -18 -9 5 -9 15
-1 30 7 37 19 12 18 10 19 -31 17 -24 -1 -42 -5 -39 -9z"/>
<path d="M328 204 c0 -10 0 -46 2 -79 2 -57 1 -59 -16 -45 -11 8 -21 18 -24
21 -3 4 -16 9 -30 13 -23 6 -23 6 -5 -5 37 -22 54 -41 48 -55 -4 -11 -7 -11
-20 1 -11 11 -19 12 -33 5 -16 -8 -22 -6 -32 10 -7 11 -18 20 -25 20 -7 0 -13
5 -13 10 0 6 -4 10 -10 10 -5 0 -10 -12 -10 -26 0 -17 -6 -28 -20 -31 -11 -3
-20 -10 -20 -16 0 -6 -2 -8 -5 -5 -12 11 7 37 22 31 11 -4 14 -2 9 5 -4 7 -14
12 -23 12 -9 0 -13 6 -9 15 3 10 -1 15 -13 15 -19 0 -39 -36 -43 -80 -3 -25
-2 -25 77 -28 56 -1 76 1 65 8 -13 9 -13 11 0 20 22 15 31 12 37 -10 5 -17 14
-20 60 -20 l54 0 -7 108 c-6 102 -12 138 -16 96z m-234 -146 c-7 -10 -24 -10
-24 0 0 5 7 9 15 9 8 0 12 -4 9 -9z m76 -32 c-7 -7 -13 -7 -20 0 -6 6 -3 10
10 10 13 0 16 -4 10 -10z"/>
<path d="M411 114 c0 -11 3 -14 6 -6 3 7 2 16 -1 19 -3 4 -6 -2 -5 -13z"/>
<path d="M510 121 c0 -6 5 -13 10 -16 6 -4 8 -11 5 -16 -4 -5 1 -9 9 -9 19 0
20 5 6 31 -11 20 -30 26 -30 10z"/>
</g>
</svg>
